<mxfile host="Electron" modified="2024-04-24T18:28:52.252Z" agent="Mozilla/5.0 (Windows NT 10.0; Win64; x64) AppleWebKit/537.36 (KHTML, like Gecko) draw.io/23.1.5 Chrome/120.0.6099.109 Electron/28.1.0 Safari/537.36" etag="kE7DoNSMI2LYmy5clBVa" version="23.1.5" type="device">
  <diagram name="Page-1" id="13e1069c-82ec-6db2-03f1-153e76fe0fe0">
    <mxGraphModel dx="1178" dy="790" grid="1" gridSize="10" guides="1" tooltips="1" connect="1" arrows="1" fold="1" page="1" pageScale="1" pageWidth="1100" pageHeight="850" background="none" math="0" shadow="0">
      <root>
        <mxCell id="0" />
        <mxCell id="1" parent="0" />
        <mxCell id="op0lxmQw7sveor1kVEQ--1" value="Вкладка &quot;Оплаты&quot;" style="shape=umlLifeline;perimeter=lifelinePerimeter;whiteSpace=wrap;html=1;container=1;collapsible=0;recursiveResize=0;outlineConnect=0;rounded=1;shadow=0;comic=0;labelBackgroundColor=none;strokeWidth=1;fontFamily=Verdana;fontSize=12;align=center;" parent="1" vertex="1">
          <mxGeometry x="370" y="110" width="140" height="280" as="geometry" />
        </mxCell>
        <mxCell id="op0lxmQw7sveor1kVEQ--2" value="" style="html=1;points=[];perimeter=orthogonalPerimeter;rounded=0;shadow=0;comic=0;labelBackgroundColor=none;strokeWidth=1;fontFamily=Verdana;fontSize=12;align=center;" parent="op0lxmQw7sveor1kVEQ--1" vertex="1">
          <mxGeometry x="65" y="100" width="10" height="170" as="geometry" />
        </mxCell>
        <mxCell id="op0lxmQw7sveor1kVEQ--3" value="Вкладка &quot;Оплаты&quot;" style="shape=umlLifeline;perimeter=lifelinePerimeter;whiteSpace=wrap;html=1;container=1;collapsible=0;recursiveResize=0;outlineConnect=0;rounded=1;shadow=0;comic=0;labelBackgroundColor=none;strokeWidth=1;fontFamily=Verdana;fontSize=12;align=center;" parent="1" vertex="1">
          <mxGeometry x="580" y="110" width="130" height="280" as="geometry" />
        </mxCell>
        <mxCell id="op0lxmQw7sveor1kVEQ--4" value="" style="html=1;points=[];perimeter=orthogonalPerimeter;rounded=0;shadow=0;comic=0;labelBackgroundColor=none;strokeWidth=1;fontFamily=Verdana;fontSize=12;align=center;" parent="op0lxmQw7sveor1kVEQ--3" vertex="1">
          <mxGeometry x="60" y="120" width="10" height="140" as="geometry" />
        </mxCell>
        <mxCell id="op0lxmQw7sveor1kVEQ--11" value="&lt;div&gt;Подтверждение действия&lt;/div&gt;" style="html=1;verticalAlign=bottom;endArrow=block;labelBackgroundColor=none;fontFamily=Verdana;fontSize=12;elbow=vertical;edgeStyle=orthogonalEdgeStyle;curved=1;exitX=1;exitY=0.429;exitDx=0;exitDy=0;exitPerimeter=0;" parent="op0lxmQw7sveor1kVEQ--3" target="op0lxmQw7sveor1kVEQ--3" edge="1" source="op0lxmQw7sveor1kVEQ--4">
          <mxGeometry x="-0.2357" y="42" relative="1" as="geometry">
            <mxPoint x="80" y="180" as="sourcePoint" />
            <mxPoint x="410" y="240" as="targetPoint" />
            <Array as="points">
              <mxPoint x="170" y="180" />
              <mxPoint x="170" y="220" />
            </Array>
            <mxPoint x="-12" y="-30" as="offset" />
          </mxGeometry>
        </mxCell>
        <mxCell id="op0lxmQw7sveor1kVEQ--5" value="Основное окно " style="shape=umlLifeline;perimeter=lifelinePerimeter;whiteSpace=wrap;html=1;container=1;collapsible=0;recursiveResize=0;outlineConnect=0;rounded=1;shadow=0;comic=0;labelBackgroundColor=none;strokeWidth=1;fontFamily=Verdana;fontSize=12;align=center;" parent="1" vertex="1">
          <mxGeometry x="120" y="110" width="110" height="280" as="geometry" />
        </mxCell>
        <mxCell id="op0lxmQw7sveor1kVEQ--6" value="" style="html=1;points=[];perimeter=orthogonalPerimeter;rounded=0;shadow=0;comic=0;labelBackgroundColor=none;strokeWidth=1;fontFamily=Verdana;fontSize=12;align=center;" parent="op0lxmQw7sveor1kVEQ--5" vertex="1">
          <mxGeometry x="50" y="100" width="10" height="180" as="geometry" />
        </mxCell>
        <mxCell id="op0lxmQw7sveor1kVEQ--7" value="Открыть вкладку &quot;Оплаты&quot;" style="html=1;verticalAlign=bottom;endArrow=block;labelBackgroundColor=none;fontFamily=Verdana;fontSize=12;edgeStyle=elbowEdgeStyle;elbow=vertical;" parent="1" target="op0lxmQw7sveor1kVEQ--1" edge="1">
          <mxGeometry x="0.0019" y="20" relative="1" as="geometry">
            <mxPoint x="180" y="220" as="sourcePoint" />
            <mxPoint x="315" y="220" as="targetPoint" />
            <Array as="points">
              <mxPoint x="250" y="220" />
            </Array>
            <mxPoint as="offset" />
          </mxGeometry>
        </mxCell>
        <mxCell id="op0lxmQw7sveor1kVEQ--8" value="Возврат" style="html=1;verticalAlign=bottom;endArrow=open;dashed=1;endSize=8;labelBackgroundColor=none;fontFamily=Verdana;fontSize=12;" parent="1" source="op0lxmQw7sveor1kVEQ--1" edge="1">
          <mxGeometry x="-0.1966" y="-3" relative="1" as="geometry">
            <mxPoint x="180" y="379.9999999999999" as="targetPoint" />
            <mxPoint x="400" y="380" as="sourcePoint" />
            <Array as="points" />
            <mxPoint x="1" as="offset" />
          </mxGeometry>
        </mxCell>
        <mxCell id="op0lxmQw7sveor1kVEQ--9" value="Возврат" style="html=1;verticalAlign=bottom;endArrow=open;dashed=1;endSize=8;labelBackgroundColor=none;fontFamily=Verdana;fontSize=12;" parent="1" source="op0lxmQw7sveor1kVEQ--3" edge="1">
          <mxGeometry x="-0.1966" y="-3" relative="1" as="geometry">
            <mxPoint x="450" y="350" as="targetPoint" />
            <mxPoint x="620" y="350" as="sourcePoint" />
            <Array as="points" />
            <mxPoint x="1" as="offset" />
          </mxGeometry>
        </mxCell>
        <mxCell id="op0lxmQw7sveor1kVEQ--10" value="Выбор файлов для загрузки" style="html=1;verticalAlign=bottom;endArrow=block;labelBackgroundColor=none;fontFamily=Verdana;fontSize=12;edgeStyle=elbowEdgeStyle;elbow=vertical;" parent="1" target="op0lxmQw7sveor1kVEQ--3" edge="1">
          <mxGeometry relative="1" as="geometry">
            <mxPoint x="450" y="250" as="sourcePoint" />
            <Array as="points" />
            <mxPoint x="615" y="249.5" as="targetPoint" />
          </mxGeometry>
        </mxCell>
      </root>
    </mxGraphModel>
  </diagram>
</mxfile>
